Coordinates
version=1
nRows=24
nColumns=24
inDegrees=yes

Units are S.I. units (second, meters, Newtons, ...)
Angles are in degrees.

endheader
time	pelvis_tilt	pelvis_list	pelvis_rotation	pelvis_tx	pelvis_ty	pelvis_tz	hip_flexion_r	hip_adduction_r	hip_rotation_r	knee_angle_r	ankle_angle_r	subtalar_angle_r	mtp_angle_r	hip_flexion_l	hip_adduction_l	hip_rotation_l	knee_angle_l	ankle_angle_l	subtalar_angle_l	mtp_angle_l	lumbar_extension	lumbar_bending	lumbar_rotation
      3.44500000	    -19.64166529	      5.61112257	     -0.04220162	     -2.25404610	     -0.00799837	     -0.28227264	     39.78131333	     -1.45639503	      2.78876028	    -63.83446267	    -13.41092134	    -22.88244031	      8.25368893	     19.22206813	     11.15421110	     17.49957430	    -10.47484571	     15.21743166	     -4.20895342	    -71.04148032	     13.29241297	     -5.80706327	     -0.85323538
      3.45000000	    -19.60106801	      5.27189603	      0.22005662	     -2.24732519	     -0.00723999	     -0.28252755	     40.34078384	     -1.20876902	      2.58936030	    -62.84427882	    -12.55057028	    -22.58010548	      8.83086001	     18.37245685	     10.84991561	     18.04097199	     -9.92827083	     15.08000856	     -4.46839298	    -71.00382205	     13.18104696	     -5.54219316	     -1.24687713
      3.45500000	    -19.58996948	      4.94457899	      0.52290616	     -2.24065679	     -0.00658643	     -0.28280230	     40.89751436	     -1.00612975	      2.37504083	    -61.75983031	    -11.78407146	    -22.27980397	      9.41478306	     17.61732595	     10.56731350	     18.44182564	     -9.48344418	     14.98767556	     -4.57485465	    -70.90494456	     13.09418809	     -5.30290750	     -1.72024150
      3.46000000	    -19.62269852	      4.65842403	      0.80336435	     -2.23395753	     -0.00607771	     -0.28314739	     41.47196322	     -0.85597504	      2.21537751	    -60.53821144	    -11.42950330	    -22.24070297	     11.10554672	     16.84721610	     10.31404689	     19.12177612	     -8.92217378	     14.63188538	     -5.03551305	    -70.23852582	     13.06879875	     -5.08982964	     -2.08167693
      3.46500000	    -19.57874684	      4.40207597	      1.07711434	     -2.22725529	     -0.00556814	     -0.28334142	     41.93797078	     -0.72128792	      2.06240906	    -59.30656798	    -10.73171066	    -21.82598224	     11.47620898	     16.09699042	     10.07433028	     19.29703257	     -8.53234085	     14.62019658	     -4.92949372	    -70.13235890	     12.95992939	     -4.92195583	     -2.44212738
      3.47000000	    -19.51292278	      4.18877694	      1.30822460	     -2.22049511	     -0.00512459	     -0.28357392	     42.34232973	     -0.61322641	      1.98110143	    -57.96025928	    -10.24361093	    -21.55915783	     12.37730864	     15.23537605	      9.86378434	     19.82218910	     -7.98233992	     14.31573246	     -5.36986342	    -69.81622666	     12.83838743	     -4.77449361	     -2.75348631
      3.47500000	    -19.54297533	      3.97069965	      1.63147357	     -2.21381567	     -0.00486117	     -0.28383936	     42.82206675	     -0.56902171	      1.81537501	    -56.56630962	     -9.70217053	    -21.18432642	     12.79798434	     14.60546680	      9.67634927	     19.98474432	     -7.66153861	     14.30375537	     -5.23396177	    -69.65497293	     12.80845842	     -4.65352363	     -3.16815053
      3.48000000	    -19.47720911	      3.80170518	      1.84226047	     -2.20703873	     -0.00457268	     -0.28400298	     43.14753137	     -0.48896865	      1.81596003	    -55.02995807	     -9.36825403	    -20.95965847	     14.02380415	     13.76493888	      9.49171087	     20.42970734	     -7.14095708	     13.96291993	     -5.65044332	    -69.12473148	     12.68874398	     -4.55317312	     -3.43008430
      3.48500000	    -19.53190874	      3.62059467	      2.16849850	     -2.20035188	     -0.00448454	     -0.28422041	     43.57987311	     -0.48668274	      1.69394414	    -53.47630005	     -8.87575329	    -20.52587415	     14.40564049	     13.19163902	      9.33540403	     20.50247914	     -6.86866510	     13.97055344	     -5.45356013	    -68.93501105	     12.68448716	     -4.48042734	     -3.82103642
      3.49000000	    -19.50552122	      3.46921543	      2.41253574	     -2.19360075	     -0.00438643	     -0.28438035	     43.87331444	     -0.45160993	      1.69271846	    -51.80951316	     -8.42510935	    -20.10727533	     15.04790767	     12.49243662	      9.18350319	     20.63533651	     -6.52716156	     13.86275347	     -5.49409792	    -68.63349295	     12.60261289	     -4.40698742	     -4.14304457
      3.49500000	    -19.56853286	      3.31299748	      2.66076099	     -2.18683136	     -0.00445536	     -0.28445479	     44.23328610	     -0.41120941	      1.69511270	    -50.08473627	     -8.00032405	    -19.61987140	     15.41446011	     11.89949932	      9.00745423	     20.75356873	     -6.20479634	     13.86434966	     -5.36686500	    -68.47241102	     12.62365019	     -4.35052906	     -4.35550282
      3.50000000	    -19.49770590	      3.19731495	      2.83974314	     -2.18007719	     -0.00439906	     -0.28450397	     44.38807523	     -0.35994848	      1.84692993	    -48.18727612	     -7.86486942	    -19.32083292	     16.98745911	     11.10240026	      8.85020791	     21.01079019	     -5.75016523	     13.46061749	     -5.67510008	    -67.59195433	     12.48817823	     -4.30268915	     -4.58737231
      3.50500000	    -19.59946701	      3.05660412	      3.13362604	     -2.17337774	     -0.00461183	     -0.28463163	     44.70810270	     -0.38009085	      1.87596758	    -46.31642413	     -7.40384205	    -18.62107718	     17.28962488	     10.62009696	      8.71392765	     20.98707923	     -5.54385464	     13.50050130	     -5.40968262	    -67.39532469	     12.53343046	     -4.27207492	     -4.91788488
      3.51000000	    -19.62852474	      2.93018330	      3.35334458	     -2.16662715	     -0.00479931	     -0.28464071	     44.89916737	     -0.34886453	      2.02897134	    -44.34974825	     -6.98497379	    -17.88338807	     17.68071265	     10.03341181	      8.55982438	     20.94561939	     -5.28651542	     13.50361421	     -5.21650666	    -67.18058813	     12.50654100	     -4.23951312	     -5.15661824
      3.51500000	    -19.69093866	      2.79981492	      3.55610918	     -2.15983278	     -0.00508672	     -0.28461446	     45.08107103	     -0.30676541	      2.21823420	    -42.30582908	     -6.59162666	    -17.11264346	     18.05138680	      9.48102013	      8.39043783	     20.92700743	     -5.03093788	     13.52803994	     -5.02109277	    -67.00449313	     12.52213892	     -4.20046081	     -5.33105197
      3.52000000	    -19.65011830	      2.67541900	      3.69619897	     -2.15308913	     -0.00527265	     -0.28449541	     45.08857250	     -0.21586981	      2.57100792	    -40.08646240	     -6.55298091	    -16.58364915	     19.59456481	      8.82674990	      8.20743008	     20.81008252	     -4.77578547	     13.37487952	     -4.83177709	    -66.01561218	     12.41101974	     -4.15372484	     -5.49945449
      3.52500000	    -19.76761544	      2.55830007	      3.93675881	     -2.14636682	     -0.00571377	     -0.28454883	     45.25867149	     -0.23538047	      2.83874410	    -37.94070687	     -6.13647831	    -15.54877146	     19.88658401	      8.37939970	      8.07321153	     20.79189309	     -4.59782770	     13.39837245	     -4.62647104	    -65.87003377	     12.47007588	     -4.13926622	     -5.75291226
      3.53000000	    -19.82432040	      2.44005234	      4.11490765	     -2.13956733	     -0.00613448	     -0.28448292	     45.31190140	     -0.20213745	      3.21863549	    -35.71576244	     -5.79354416	    -14.54490013	     20.19820629	      7.85198326	      7.90578379	     20.71366722	     -4.39502804	     13.44171116	     -4.36138006	    -65.71585001	     12.47421597	     -4.11243656	     -5.91892974
      3.53500000	    -19.86217824	      2.32371687	      4.29069349	     -2.13281074	     -0.00656701	     -0.28443858	     45.30372281	     -0.17585643	      3.69171614	    -33.43317641	     -5.52095412	    -13.52973749	     20.53428297	      7.33326937	      7.74638073	     20.59485857	     -4.24216230	     13.50370159	     -4.06599277	    -65.53822740	     12.44605161	     -4.08020762	     -6.10060144
      3.54000000	    -19.98028199	      2.18105644	      4.44434014	     -2.12601207	     -0.00714931	     -0.28437185	     45.33870424	     -0.11798418	      4.25110363	    -31.09681221	     -5.34103454	    -12.59612829	     20.74550939	      6.91178492	      7.56079507	     20.52113607	     -4.11619829	     13.60152380	     -3.82986400	    -65.41105035	     12.51672852	     -4.01940326	     -6.20387507
      3.54500000	    -19.91788940	      2.09790983	      4.62796892	     -2.11930951	     -0.00755230	     -0.28431014	     45.14488148	     -0.14215523	      4.90485722	    -28.73234162	     -5.17623737	    -11.68175196	     21.19822674	      6.33782882	      7.43012893	     20.27454328	     -4.06135226	     13.72809767	     -3.29386297	    -65.04031025	     12.35764460	     -4.02349137	     -6.41219743
      3.55000000	    -20.05703994	      1.98169464	      4.76737481	     -2.11247163	     -0.00825566	     -0.28430938	     45.14457514	     -0.14326703	      5.58491035	    -26.36582449	     -5.06711860	    -10.81567432	     21.30693497	      5.95170481	      7.27807799	     20.18634445	     -3.96207751	     13.79479470	     -3.06884811	    -64.91712032	     12.45534674	     -3.97880851	     -6.51628524
      3.55500000	    -20.02745512	      1.89633373	      4.92303567	     -2.10573711	     -0.00879133	     -0.28427022	     44.93262783	     -0.18457276	      6.36052795	    -23.99061473	     -5.03704605	    -10.10234974	     21.33293849	      5.45694110	      7.15388619	     19.86475966	     -3.99510402	     13.95100657	     -2.48244699	    -64.44370486	     12.33570979	     -3.96240398	     -6.69495121
      3.56000000	    -20.22356884	      1.86276937	      5.10414545	     -2.09901904	     -0.00968302	     -0.28435588	     44.98437722	     -0.33630522	      7.14828669	    -21.70184219	     -5.01645172	     -9.40911857	     21.28199485	      5.17012689	      7.10978271	     19.90375938	     -3.97118645	     13.98407751	     -2.33246076	    -64.39578856	     12.46541447	     -4.01494986	     -6.87336572
